<svg width="500" height="500" viewBox="0 0 500 500" fill="none" xmlns="http://www.w3.org/2000/svg">
<path opacity="0.7" d="M67.93 167.09C67.93 167.09 40.05 239.09 79.23 311.59C118.41 384.09 199.11 422.39 263.7 455.14C328.29 487.89 395.36 471.94 427.23 418.3C459.1 364.66 415.39 326.37 415.33 249.88C415.27 173.39 426.78 153.14 385.33 88.5201C343.88 23.9001 242.27 9.59007 165.43 57.5201C88.59 105.45 67.93 167.09 67.93 167.09Z" fill="white"/>
<path d="M110 112.47C123.46 96.3902 141.65 84.0001 163.33 84.2101C200.33 84.6701 220.33 117.42 241.55 142.68C252.55 155.78 265.04 168.42 281.38 174.58C305.89 183.81 333.19 178.42 357.07 169.85C367.77 166.01 380.44 160.61 392.49 163.37C429.12 171.75 425.31 216.45 419.26 244.76C411.09 283 397.81 323.66 370.9 353C306.47 423.29 190.52 380.2 132.4 324.11C128.13 319.98 124.04 315.68 120.19 311.11C110.188 299.449 101.722 286.554 95 272.74C76.28 233.79 73.7 186.45 90 146.2C94.8946 133.996 101.64 122.619 110 112.47Z" fill="#A7CEFC"/>
<path opacity="0.7" d="M110 112.47C123.46 96.3902 141.65 84.0001 163.33 84.2101C200.33 84.6701 220.33 117.42 241.55 142.68C252.55 155.78 265.04 168.42 281.38 174.58C305.89 183.81 333.19 178.42 357.07 169.85C367.77 166.01 380.44 160.61 392.49 163.37C429.12 171.75 425.31 216.45 419.26 244.76C411.09 283 397.81 323.66 370.9 353C306.47 423.29 190.52 380.2 132.4 324.11C128.13 319.98 124.04 315.68 120.19 311.11C110.188 299.449 101.722 286.554 95 272.74C76.28 233.79 73.7 186.45 90 146.2C94.8946 133.996 101.64 122.619 110 112.47Z" fill="white"/>
<path d="M54.05 443.43H445.95" stroke="#263238" stroke-linecap="round" stroke-linejoin="round"/>
<path d="M291.97 240.8V93.6599H301.08" stroke="#263238" stroke-linecap="round" stroke-linejoin="round"/>
<path d="M291.97 258.31V254.41" stroke="#263238" stroke-linecap="round" stroke-linejoin="round"/>
<path d="M324.51 93.6599H418.52V272.03H291.97" stroke="#263238" stroke-linecap="round" stroke-linejoin="round"/>
<path d="M312.99 93.6599H321.25" stroke="#263238" stroke-linecap="round" stroke-linejoin="round"/>
<path d="M413.76 98.4099H296.73V267.28H413.76V98.4099Z" stroke="#263238" stroke-linecap="round" stroke-linejoin="round"/>
<path d="M408.32 107.45V177.58H302.17V173" stroke="#263238" stroke-linecap="round" stroke-linejoin="round"/>
<path d="M302.17 162.28V103.39H408.32" stroke="#263238" stroke-linecap="round" stroke-linejoin="round"/>
<path d="M302.17 169.49V165.04" stroke="#263238" stroke-linecap="round" stroke-linejoin="round"/>
<path d="M390.39 182.84H413.76" stroke="#263238" stroke-linecap="round" stroke-linejoin="round"/>
<path d="M382.08 182.84H385.39" stroke="#263238" stroke-linecap="round" stroke-linejoin="round"/>
<path d="M296.73 182.84H378.14" stroke="#263238" stroke-linecap="round" stroke-linejoin="round"/>
<path d="M349.36 177.58V175.16H359.15V176.53H355.25V177.58" stroke="#263238" stroke-linecap="round" stroke-linejoin="round"/>
<path d="M296.93 246C296.93 246 298.56 247.23 299.7 254.67C299.7 254.67 301.7 242.79 304.04 242.61C306.38 242.43 305.94 250.33 305.94 250.33C305.94 250.33 306.34 246.44 308.2 246.62C310.06 246.8 308.2 254.62 308.2 254.62C308.2 254.62 310.44 248.48 312.56 248.62C314.68 248.76 311.16 259.74 311.16 259.74C311.16 259.74 316.6 255.8 318.8 257.74C321 259.68 317.58 264.52 317.58 264.52C317.58 264.52 325.38 262.83 326.58 267.41" stroke="#263238" stroke-linecap="round" stroke-linejoin="round"/>
<path d="M326.59 263C326.59 263 329.99 260.77 332.67 261.81C332.67 261.81 330.97 259.22 332.67 257.64C334.37 256.06 336.55 261.81 336.55 261.81C336.55 261.81 336.8 252.16 340.2 252.65C343.6 253.14 340.2 261.81 340.2 261.81C340.2 261.81 346.27 256.43 347.73 258.3C349.19 260.17 346.73 263 346.73 263C347.827 262.688 348.987 262.667 350.095 262.939C351.203 263.211 352.221 263.766 353.05 264.55C353.05 264.55 357.12 260.4 361.64 259.8C361.64 259.8 358.64 251.07 360.09 249.31C361.54 247.55 364.2 256.93 364.2 256.93C364.2 256.93 365.36 250.83 369.2 250.35C369.2 250.35 366.03 248.63 366.97 246.02C367.91 243.41 372.28 246.64 372.28 246.64C372.28 246.64 370.48 242.05 373.33 240.79C376.18 239.53 377.33 244.63 377.33 244.63C377.33 244.63 378.13 239.29 381.47 239.63C384.81 239.97 383.73 246.07 383.73 246.07C383.73 246.07 386.88 241.19 388.57 241.68C391.94 242.68 390.92 250.4 390.92 250.4C390.92 250.4 395.62 247.13 396.84 248.64C398.06 250.15 391.94 254.45 391.94 254.45C391.94 254.45 396.61 254.96 399.52 257.69" stroke="#263238" stroke-linecap="round" stroke-linejoin="round"/>
<path d="M413.76 247.8C413.76 247.8 413.22 242.9 408.32 242.64C403.42 242.38 409.67 253.39 409.67 253.39C409.67 253.39 405.62 250.04 404.17 251.07C402.72 252.1 408.32 257.78 408.32 257.78C408.32 257.78 405.63 255.29 402.8 256.06C399.97 256.83 404.41 264.72 404.41 264.72C400.223 263.881 395.878 264.392 392 266.18" stroke="#263238" stroke-linecap="round" stroke-linejoin="round"/>
<path d="M246.69 399.65V443.17" stroke="#263238" stroke-linecap="round" stroke-linejoin="round"/>
<path d="M246.69 385.41V394.73" stroke="#263238" stroke-linecap="round" stroke-linejoin="round"/>
<path d="M63.49 443.43V362.33H246.69V380.13" stroke="#263238" stroke-linecap="round" stroke-linejoin="round"/>
<path d="M90.18 371.2H74.28V435.99" stroke="#263238" stroke-linecap="round" stroke-linejoin="round"/>
<path d="M235.9 443.17V371.2H99.4099" stroke="#263238" stroke-linecap="round" stroke-linejoin="round"/>
<path d="M228.28 353.93H223.23" stroke="#263238" stroke-linecap="round" stroke-linejoin="round"/>
<path d="M215.98 353.93H58.9399V362.27H251.24V353.93H231.5" stroke="#263238" stroke-linecap="round" stroke-linejoin="round"/>
<path d="M69.77 300.49C69.77 300.49 84.77 301.68 85.45 312.78C85.45 312.78 70.2 319.8 69.77 300.49Z" stroke="#263238" stroke-linecap="round" stroke-linejoin="round"/>
<path d="M99.54 303.25C99.54 303.25 107.95 291.88 121.54 297.71C121.54 297.71 113.24 311.45 99.54 303.25Z" stroke="#263238" stroke-linecap="round" stroke-linejoin="round"/>
<path d="M120.39 267.35C120.39 267.35 122.81 289.22 102.9 283.2C102.9 283.2 109.22 267.12 120.39 267.35Z" stroke="#263238" stroke-linecap="round" stroke-linejoin="round"/>
<path d="M95.94 255.17C95.94 255.17 111.69 263.67 100.11 276.55C100.11 276.55 89.07 267.35 95.94 255.17Z" stroke="#263238" stroke-linecap="round" stroke-linejoin="round"/>
<path d="M76.5698 274.72C76.5698 274.72 93.6898 273 93.6898 288.84C93.6898 288.84 76.5698 289.52 76.5698 274.72Z" stroke="#263238" stroke-linecap="round" stroke-linejoin="round"/>
<path d="M89.4 321.73C89.15 316.41 89.15 309.57 92.4 302.34C99.89 285.66 102.4 271.61 98.51 261.71" stroke="#263238" stroke-linecap="round" stroke-linejoin="round"/>
<path d="M82.1899 279C82.1899 279 92.4499 283.08 95.9399 293.65" stroke="#263238" stroke-linecap="round" stroke-linejoin="round"/>
<path d="M115 276.1C115 276.1 109.07 284.18 99 283.31" stroke="#263238" stroke-linecap="round" stroke-linejoin="round"/>
<path d="M115 300C115 300 98.57 304.73 92 303.18" stroke="#263238" stroke-linecap="round" stroke-linejoin="round"/>
<path d="M74.6699 305.49C74.6699 305.49 82.0199 313.55 89.3999 313.42" stroke="#263238" stroke-linecap="round" stroke-linejoin="round"/>
<path d="M108.93 321.73H73.2399C73.0091 321.73 72.7878 321.822 72.6247 321.985C72.4615 322.148 72.3699 322.369 72.3699 322.6V325.31C72.3699 325.424 72.3924 325.536 72.4363 325.641C72.4801 325.746 72.5444 325.842 72.6253 325.922C72.7062 326.002 72.8022 326.065 72.9077 326.107C73.0132 326.15 73.1261 326.171 73.2399 326.17H74.2399L77.4199 353.93H104.7L107.88 326.17H108.93C109.043 326.171 109.156 326.15 109.261 326.107C109.366 326.064 109.461 326.001 109.541 325.921C109.621 325.841 109.684 325.746 109.727 325.641C109.77 325.536 109.791 325.423 109.79 325.31V322.6C109.791 322.486 109.77 322.373 109.727 322.268C109.685 322.162 109.622 322.066 109.542 321.985C109.462 321.904 109.366 321.84 109.261 321.796C109.156 321.753 109.044 321.73 108.93 321.73Z" stroke="#263238" stroke-miterlimit="10"/>
<path d="M76.5698 326.17H97.3298" stroke="#263238" stroke-linecap="round" stroke-linejoin="round"/>
<path d="M101.24 326.17H104.36" stroke="#263238" stroke-linecap="round" stroke-linejoin="round"/>
<path d="M328.71 211.09L324.71 232.83L292.09 252.65L296.6 260.93C296.6 260.93 334.31 249.43 335.23 246.74C336.15 244.05 344.84 215.56 344.84 215.56L328.71 211.09Z" fill="#263238"/>
<path d="M343 174.33L340.82 200.69L339.67 214.52C333.38 217.58 327.23 212.98 326.85 212.68C328.56 207.66 330.55 179.33 343 174.33Z" fill="#999999" stroke="#263238" stroke-linecap="round" stroke-linejoin="round"/>
<path d="M340.78 200.69L339.63 214.52C333.34 217.58 327.19 212.98 326.81 212.68C327.08 212.8 330.39 214.2 332.54 212.68C331.788 211.868 331.118 210.984 330.54 210.04C330.41 209.52 332.54 209.38 332.54 209.38C332.54 209.38 331.14 198.17 334.87 193.38C336.33 191.56 338.61 195.36 340.78 200.69Z" fill="#263238"/>
<path d="M365.59 418.44L366.59 421.38C365.075 423.882 363.377 426.268 361.51 428.52C361.51 428.52 360.51 428.2 358.87 429.65C357.86 430.657 357.237 431.989 357.11 433.41C357.11 433.41 349.47 442.57 339.78 442.7C330.09 442.83 333.01 437.95 333.01 437.95L365.59 418.44Z" fill="#A7CEFC" stroke="#263238" stroke-linecap="round" stroke-linejoin="round"/>
<path d="M356.48 395.13C356.48 395.13 343.48 390.34 340.94 399.92C340.94 399.92 343.26 410.47 341.87 416.24C340.48 422.01 333.48 433.03 333.05 435.12C332.2 439.22 332.84 439.5 332.84 439.5C332.84 439.5 337.93 442.44 344.77 439.29C351.61 436.14 363.45 422.58 365.3 419.79C367.15 417 359.5 406 359.5 406L356.48 395.13Z" fill="white"/>
<mask id="mask0_504_43741" style="mask-type:luminance" maskUnits="userSpaceOnUse" x="332" y="393" width="34" height="48">
<path d="M356.48 395.13C356.48 395.13 343.48 390.34 340.94 399.92C340.94 399.92 343.26 410.47 341.87 416.24C340.48 422.01 333.48 433.03 333.05 435.12C332.2 439.22 332.84 439.5 332.84 439.5C332.84 439.5 337.93 442.44 344.77 439.29C351.61 436.14 363.45 422.58 365.3 419.79C367.15 417 359.5 406 359.5 406L356.48 395.13Z" fill="white"/>
</mask>
<g mask="url(#mask0_504_43741)">
<path opacity="0.4" d="M356.48 395.13C356.48 395.13 343.48 390.34 340.94 399.92C340.94 399.92 343.26 410.47 341.87 416.24C340.48 422.01 333.48 433.03 333.05 435.12C332.2 439.22 332.84 439.5 332.84 439.5C332.84 439.5 337.93 442.44 344.77 439.29C351.61 436.14 363.45 422.58 365.3 419.79C367.15 417 359.5 406 359.5 406L356.48 395.13Z" fill="#A7CEFC"/>
</g>
<path d="M356.48 395.13C356.48 395.13 343.48 390.34 340.94 399.92C340.94 399.92 343.26 410.47 341.87 416.24C340.48 422.01 333.48 433.03 333.05 435.12C332.2 439.22 332.84 439.5 332.84 439.5C332.84 439.5 337.93 442.44 344.77 439.29C351.61 436.14 363.45 422.58 365.3 419.79C367.15 417 359.5 406 359.5 406L356.48 395.13Z" stroke="#263238" stroke-linecap="round" stroke-linejoin="round"/>
<path d="M349.83 408.68C350.961 415.134 349.812 421.78 346.58 427.48" stroke="#263238" stroke-linecap="round" stroke-linejoin="round"/>
<path d="M346.58 430C346.096 431.218 345.345 432.311 344.383 433.201C343.421 434.09 342.272 434.753 341.02 435.14C338.399 435.841 335.641 435.841 333.02 435.14L336.14 428.82C339.452 430.139 343.057 430.547 346.58 430Z" fill="#A7CEFC" stroke="#263238" stroke-linecap="round" stroke-linejoin="round"/>
<path d="M348.42 426.17C348.42 426.17 341.62 426.58 338.07 425.17" stroke="#263238" stroke-linecap="round" stroke-linejoin="round"/>
<path d="M349.68 422.42C349.68 422.42 343.32 423.42 339.77 421.42" stroke="#263238" stroke-linecap="round" stroke-linejoin="round"/>
<path d="M350.76 418.25C350.76 418.25 345.19 419.06 341.55 417.34" stroke="#263238" stroke-linecap="round" stroke-linejoin="round"/>
<path d="M351.38 413.53C351.38 413.53 345.18 415.47 342.25 413.53" stroke="#263238" stroke-linecap="round" stroke-linejoin="round"/>
<path d="M352.31 401.87L353.39 408.68C353.39 408.68 345.19 414.08 339.77 407.33V400.22C339.77 400.22 341.81 405 352.31 401.87Z" fill="#A7CEFC" stroke="#263238" stroke-linecap="round" stroke-linejoin="round"/>
<path d="M345.19 249C336.88 275.33 311.09 317.56 313.7 328.37C315.13 334.27 323.64 367.7 330.3 382.37C332.83 387.98 338.3 391.73 338.3 391.73L342.25 400.2C351.88 404.39 355.33 395.87 355.33 395.87L353.39 386.27C358.55 376.89 356.39 376.89 349.68 328.27C348.89 322.54 362.18 304.83 362.18 304.83L369 349.39L370.11 385.89L373.65 397.17C373.65 397.17 374.53 407.76 374.45 408.4H390.28L392 396.76C392 396.76 399.35 389.83 399.35 381.83C399.35 373.83 397.77 333.08 399.35 321.21C400.93 309.34 395.65 254 395.65 254L345.19 249Z" fill="#263238"/>
<path d="M237.576 225.539L259.576 227.519C260.075 227.564 260.535 227.805 260.856 228.189C261.177 228.574 261.332 229.07 261.287 229.568L259.874 245.268L234.114 242.95L235.527 227.25C235.572 226.751 235.813 226.291 236.197 225.97C236.581 225.649 237.077 225.494 237.576 225.539Z" fill="#A7CEFC"/>
<mask id="mask1_504_43741" style="mask-type:luminance" maskUnits="userSpaceOnUse" x="234" y="225" width="28" height="21">
<path d="M237.576 225.539L259.576 227.519C260.075 227.564 260.535 227.805 260.856 228.189C261.177 228.574 261.332 229.07 261.287 229.568L259.874 245.268L234.114 242.95L235.527 227.25C235.572 226.751 235.813 226.291 236.197 225.97C236.582 225.649 237.078 225.494 237.576 225.539Z" fill="white"/>
</mask>
<g mask="url(#mask1_504_43741)">
<path opacity="0.3" d="M237.576 225.539L259.576 227.519C260.075 227.564 260.535 227.805 260.856 228.189C261.177 228.574 261.332 229.07 261.287 229.568L259.874 245.268L234.114 242.95L235.527 227.25C235.572 226.751 235.813 226.291 236.197 225.97C236.582 225.649 237.078 225.494 237.576 225.539Z" fill="black" fill-opacity="0.7"/>
<path opacity="0.3" d="M259.922 227.247L253.615 226.705L252.531 239.318L258.838 239.86L259.922 227.247Z" fill="white" fill-opacity="0.7"/>
</g>
<path d="M237.576 225.539L259.576 227.519C260.075 227.564 260.535 227.805 260.856 228.189C261.177 228.574 261.332 229.07 261.287 229.568L259.874 245.268L234.114 242.95L235.527 227.25C235.572 226.751 235.813 226.291 236.197 225.97C236.581 225.649 237.077 225.494 237.576 225.539Z" stroke="#263238" stroke-width="1.00404" stroke-linecap="round" stroke-linejoin="round"/>
<path d="M275.549 226.929L297.468 228.812C297.965 228.855 298.425 229.093 298.746 229.474C299.067 229.856 299.223 230.349 299.181 230.846L297.837 246.488L272.171 244.284L273.515 228.641C273.558 228.144 273.796 227.685 274.178 227.364C274.559 227.043 275.052 226.886 275.549 226.929Z" fill="#A7CEFC"/>
<mask id="mask2_504_43741" style="mask-type:luminance" maskUnits="userSpaceOnUse" x="272" y="226" width="28" height="21">
<path d="M275.549 226.929L297.468 228.812C297.965 228.855 298.425 229.093 298.746 229.474C299.067 229.856 299.223 230.349 299.181 230.846L297.837 246.488L272.171 244.284L273.515 228.641C273.558 228.144 273.796 227.685 274.178 227.364C274.559 227.043 275.052 226.886 275.549 226.929Z" fill="white"/>
</mask>
<g mask="url(#mask2_504_43741)">
<path opacity="0.3" d="M275.549 226.929L297.468 228.812C297.965 228.855 298.425 229.093 298.746 229.474C299.067 229.856 299.223 230.349 299.181 230.846L297.837 246.488L272.171 244.284L273.515 228.641C273.558 228.144 273.796 227.685 274.178 227.364C274.559 227.043 275.052 226.886 275.549 226.929Z" fill="black" fill-opacity="0.7"/>
<path opacity="0.3" d="M297.349 230.468L293.543 230.141L292.46 242.755L296.266 243.082L297.349 230.468Z" fill="white" fill-opacity="0.7"/>
</g>
<path d="M275.549 226.929L297.468 228.812C297.965 228.855 298.425 229.093 298.746 229.474C299.067 229.856 299.223 230.349 299.181 230.846L297.837 246.488L272.171 244.284L273.515 228.641C273.558 228.144 273.796 227.685 274.178 227.364C274.559 227.043 275.052 226.886 275.549 226.929Z" stroke="#263238" stroke-linecap="round" stroke-linejoin="round"/>
<path d="M267.587 226.239L289.507 228.122C290.003 228.165 290.463 228.403 290.784 228.785C291.105 229.166 291.262 229.66 291.219 230.156L289.875 245.799L264.21 243.594L265.553 227.951C265.596 227.455 265.834 226.995 266.216 226.674C266.597 226.353 267.091 226.197 267.587 226.239Z" fill="#A7CEFC" stroke="#263238" stroke-linecap="round" stroke-linejoin="round"/>
<path d="M305.44 229.498L327.359 231.381C327.856 231.423 328.315 231.662 328.636 232.043C328.957 232.425 329.114 232.918 329.071 233.415L327.728 249.047L302.063 246.842L303.406 231.2C303.452 230.705 303.691 230.248 304.072 229.929C304.453 229.61 304.944 229.455 305.44 229.498Z" fill="#A7CEFC" stroke="#263238" stroke-linecap="round" stroke-linejoin="round"/>
<path opacity="0.3" d="M289.812 229.816L283.505 229.274L282.422 241.887L288.729 242.429L289.812 229.816Z" fill="white" fill-opacity="0.7"/>
<path opacity="0.3" d="M327.249 233.028L320.942 232.487L319.859 245.1L326.166 245.642L327.249 233.028Z" fill="white" fill-opacity="0.7"/>
<path d="M339.19 246.39L333 318.32L217.11 308.32L223.3 236.4C223.35 235.805 223.518 235.225 223.792 234.695C224.067 234.164 224.444 233.693 224.901 233.309C225.358 232.924 225.886 232.634 226.456 232.454C227.026 232.274 227.625 232.208 228.22 232.26L335.04 241.44C335.639 241.489 336.222 241.656 336.756 241.932C337.29 242.208 337.763 242.588 338.149 243.048C338.535 243.509 338.826 244.041 339.005 244.615C339.183 245.188 339.246 245.792 339.19 246.39Z" fill="#A7CEFC"/>
<mask id="mask3_504_43741" style="mask-type:luminance" maskUnits="userSpaceOnUse" x="217" y="232" width="123" height="87">
<path d="M339.19 246.39L333 318.32L217.11 308.32L223.3 236.4C223.35 235.805 223.518 235.225 223.792 234.695C224.067 234.164 224.444 233.693 224.901 233.309C225.358 232.924 225.886 232.634 226.456 232.454C227.026 232.274 227.625 232.208 228.22 232.26L335.04 241.44C335.639 241.489 336.222 241.656 336.756 241.932C337.29 242.208 337.763 242.588 338.149 243.048C338.535 243.509 338.826 244.041 339.005 244.615C339.183 245.188 339.246 245.792 339.19 246.39Z" fill="white"/>
</mask>
<g mask="url(#mask3_504_43741)">
<path opacity="0.3" d="M339.19 246.39L333 318.32L217.11 308.32L223.3 236.4C223.35 235.805 223.518 235.225 223.792 234.695C224.067 234.164 224.444 233.693 224.901 233.309C225.358 232.924 225.886 232.634 226.456 232.454C227.026 232.274 227.625 232.208 228.22 232.26L335.04 241.44C335.639 241.489 336.222 241.656 336.756 241.932C337.29 242.208 337.763 242.588 338.149 243.048C338.535 243.509 338.826 244.041 339.005 244.615C339.183 245.188 339.246 245.792 339.19 246.39Z" fill="black" fill-opacity="0.7"/>
</g>
<path d="M339.19 246.39L333 318.32L217.11 308.32L223.3 236.4C223.35 235.805 223.518 235.225 223.792 234.695C224.067 234.164 224.444 233.693 224.901 233.309C225.358 232.924 225.886 232.634 226.456 232.454C227.026 232.274 227.625 232.208 228.22 232.26L335.04 241.44C335.639 241.489 336.222 241.656 336.756 241.932C337.29 242.208 337.763 242.588 338.149 243.048C338.535 243.509 338.826 244.041 339.005 244.615C339.183 245.188 339.246 245.792 339.19 246.39Z" stroke="#263238" stroke-linecap="round" stroke-linejoin="round"/>
<path d="M339.19 246.39L333 318.32L247 310.92L253.2 239C253.25 238.405 253.418 237.825 253.692 237.295C253.967 236.764 254.344 236.293 254.801 235.909C255.258 235.524 255.786 235.234 256.356 235.054C256.925 234.874 257.525 234.808 258.12 234.86L335.05 241.47C335.645 241.52 336.225 241.688 336.755 241.962C337.285 242.237 337.757 242.614 338.141 243.071C338.526 243.528 338.816 244.056 338.996 244.626C339.176 245.195 339.242 245.795 339.19 246.39Z" fill="#A7CEFC" stroke="#263238" stroke-linecap="round" stroke-linejoin="round"/>
<path opacity="0.3" d="M333.15 248.45L259.64 242.13C259.15 242.086 258.697 241.853 258.377 241.479C258.057 241.105 257.897 240.621 257.93 240.13C257.973 239.64 258.207 239.186 258.581 238.867C258.955 238.547 259.439 238.387 259.93 238.42L333.44 244.74C333.93 244.783 334.384 245.017 334.703 245.391C335.023 245.765 335.183 246.249 335.15 246.74C335.107 247.23 334.873 247.683 334.499 248.003C334.125 248.323 333.641 248.483 333.15 248.45Z" fill="white" fill-opacity="0.7"/>
<path d="M390.8 408.81C390.8 408.81 385.26 404.86 373.8 405.65C373.8 405.65 372.96 419.4 371.4 423.4C369.84 427.4 361.62 434.33 360.09 435.52C358.56 436.71 358.56 440.86 358.56 440.86H393.38C392.933 434.908 392.007 429.002 390.61 423.2L390.8 408.81Z" fill="white"/>
<mask id="mask4_504_43741" style="mask-type:luminance" maskUnits="userSpaceOnUse" x="358" y="405" width="36" height="36">
<path d="M390.8 408.81C390.8 408.81 385.26 404.86 373.8 405.65C373.8 405.65 372.96 419.4 371.4 423.4C369.84 427.4 361.62 434.33 360.09 435.52C358.56 436.71 358.56 440.86 358.56 440.86H393.38C392.933 434.908 392.007 429.002 390.61 423.2L390.8 408.81Z" fill="white"/>
</mask>
<g mask="url(#mask4_504_43741)">
<path opacity="0.4" d="M390.8 408.81C390.8 408.81 385.26 404.86 373.8 405.65C373.8 405.65 372.96 419.4 371.4 423.4C369.84 427.4 361.62 434.33 360.09 435.52C358.56 436.71 358.56 440.86 358.56 440.86H393.38C392.933 434.908 392.007 429.002 390.61 423.2L390.8 408.81Z" fill="#A7CEFC"/>
</g>
<path d="M390.8 408.81C390.8 408.81 385.26 404.86 373.8 405.65C373.8 405.65 372.96 419.4 371.4 423.4C369.84 427.4 361.62 434.33 360.09 435.52C358.56 436.71 358.56 440.86 358.56 440.86H393.38C392.933 434.908 392.007 429.002 390.61 423.2L390.8 408.81Z" stroke="#263238" stroke-linecap="round" stroke-linejoin="round"/>
<path d="M383.61 410.59C383.61 410.59 382.79 423.25 380.82 426.59C379.768 428.425 378.469 430.108 376.96 431.59" stroke="#263238" stroke-linecap="round" stroke-linejoin="round"/>
<path d="M376 433.34C376 433.34 374.25 435.52 372.31 435.81C370.37 436.1 360.12 435.52 360.12 435.52L364.3 431.9C364.3 431.9 372.8 430.47 376 433.34Z" fill="#A7CEFC" stroke="#263238" stroke-linecap="round" stroke-linejoin="round"/>
<path d="M379.62 430.37C379.62 430.37 372.2 426.11 366.91 429.37" stroke="#263238" stroke-linecap="round" stroke-linejoin="round"/>
<path d="M381.41 427.48C381.41 427.48 376.23 423.43 370.12 425.65" stroke="#263238" stroke-linecap="round" stroke-linejoin="round"/>
<path d="M383.61 423.07C383.61 423.07 378.03 418.73 372.15 421.49" stroke="#263238" stroke-linecap="round" stroke-linejoin="round"/>
<path d="M384.37 417.56C384.37 417.56 377.6 413.92 372.68 416.68" stroke="#263238" stroke-linecap="round" stroke-linejoin="round"/>
<path d="M393.37 440.86V443.43H389.37C389.37 443.43 385.94 441.43 382.68 443.43H363.9C361.916 443.423 359.957 442.983 358.16 442.14L358.55 440.86H393.37Z" fill="#A7CEFC" stroke="#263238" stroke-linecap="round" stroke-linejoin="round"/>
<path d="M388.38 408L387.49 413.61C387.49 413.61 377.04 410.22 371.27 412.42V405.52C371.27 405.52 382 401.76 388.38 408Z" fill="#A7CEFC" stroke="#263238" stroke-linecap="round" stroke-linejoin="round"/>
<path d="M399.68 268.23C399.68 268.23 377.47 272.58 355.68 265.52C350.719 263.939 345.973 261.749 341.55 259C341.55 259 341.61 257.6 341.65 255.31C341.83 246.37 341.78 223.88 337.07 218.31C334.07 214.8 331.72 193.1 337.51 182.13L355.22 167.89C379.74 172.68 384.92 179.17 388.97 193.17C389.72 195.73 390.42 198.54 391.2 201.64C392.05 205.02 392.85 209.15 393.61 213.64C397.29 236 399.68 268.23 399.68 268.23Z" fill="#999999"/>
<mask id="mask5_504_43741" style="mask-type:luminance" maskUnits="userSpaceOnUse" x="333" y="167" width="67" height="103">
<path d="M399.68 268.23C399.68 268.23 377.47 272.58 355.68 265.52C350.719 263.939 345.973 261.749 341.55 259C341.55 259 341.61 257.6 341.65 255.31C341.83 246.37 341.78 223.88 337.07 218.31C334.07 214.8 331.72 193.1 337.51 182.13L355.22 167.89C379.74 172.68 384.92 179.17 388.97 193.17C389.72 195.73 390.42 198.54 391.2 201.64C392.05 205.02 392.85 209.15 393.61 213.64C397.29 236 399.68 268.23 399.68 268.23Z" fill="white"/>
</mask>
<g mask="url(#mask5_504_43741)">
<path opacity="0.2" d="M393.61 213.64L383.61 258.31C383.61 258.31 369.16 262.31 355.69 265.52C350.725 263.94 345.976 261.75 341.55 259C341.55 259 341.61 257.6 341.65 255.31C353.75 249.12 371.41 240.02 371.27 239.59C371.04 238.92 371.27 215.59 371.27 215.59C371.27 215.59 387.27 211.88 388.97 193.14C389.72 195.7 390.42 198.51 391.2 201.61C392.05 205 392.85 209.1 393.61 213.64Z" fill="black"/>
</g>
<path d="M399.68 268.23C399.68 268.23 377.47 272.58 355.68 265.52C350.719 263.939 345.973 261.749 341.55 259C341.55 259 341.61 257.6 341.65 255.31C341.83 246.37 341.78 223.88 337.07 218.31C334.07 214.8 331.72 193.1 337.51 182.13L355.22 167.89C379.74 172.68 384.92 179.17 388.97 193.17C389.72 195.73 390.42 198.54 391.2 201.64C392.05 205.02 392.85 209.15 393.61 213.64C397.29 236 399.68 268.23 399.68 268.23Z" stroke="#263238" stroke-linecap="round" stroke-linejoin="round"/>
<path d="M356 149.2C356 149.2 348.18 160.4 358.58 169.14C358.58 169.14 345.96 183.3 341.81 181.35C340.06 180.53 341.81 175.42 341.81 175.42L334.49 161.88L356 149.2Z" fill="white" stroke="#263238" stroke-linecap="round" stroke-linejoin="round"/>
<path d="M353.45 155C355.89 144.33 354.72 128.44 339.77 129.85C329.29 130.85 321.82 136.65 324.77 150.71C326 156.64 327.01 165.04 332.45 172.62C333.96 174.72 349.76 167.29 348.8 161.28" fill="white"/>
<path d="M353.45 155C355.89 144.33 354.72 128.44 339.77 129.85C329.29 130.85 321.82 136.65 324.77 150.71C326 156.64 327.01 165.04 332.45 172.62C333.96 174.72 349.76 167.29 348.8 161.28" stroke="#263238" stroke-linecap="round" stroke-linejoin="round"/>
<path d="M332.06 148.33C333.114 147.922 334.25 147.766 335.375 147.876C336.5 147.985 337.584 148.356 338.54 148.96" stroke="#263238" stroke-linecap="round" stroke-linejoin="round"/>
<path d="M324.54 149.64C324.732 149.231 325.065 148.904 325.479 148.72C325.892 148.537 326.357 148.508 326.79 148.64" stroke="#263238" stroke-linecap="round" stroke-linejoin="round"/>
<path d="M328.28 151.86C328.28 151.86 325.2 157.47 325.19 158.27C325.18 159.07 328.98 159.34 328.98 159.34" fill="white"/>
<path d="M328.28 151.86C328.28 151.86 325.2 157.47 325.19 158.27C325.18 159.07 328.98 159.34 328.98 159.34" stroke="#263238" stroke-linecap="round" stroke-linejoin="round"/>
<path d="M334.9 153C334.9 153.61 334.63 154.11 334.25 154.13C333.87 154.15 333.55 153.65 333.53 153.04C333.51 152.43 333.8 151.93 334.18 151.92C334.56 151.91 334.88 152.41 334.9 153Z" fill="#263238"/>
<path d="M330.55 163.42C330.55 163.42 336.46 162.31 337.55 160.23" stroke="#263238" stroke-linecap="round" stroke-linejoin="round"/>
<path d="M324.5 141L329.1 139.66C329.1 139.66 335.55 136.66 336.92 137.08C338.29 137.5 341.07 141.77 340.98 144.21C340.98 144.21 345.32 148.03 345.87 153.57L347.19 152.97C347.19 152.97 347.12 147.97 349.96 148.1C352.8 148.23 354.08 151.63 353.89 152.7C353.7 153.77 350.59 158.21 350.59 158.21C350.59 158.21 357.71 157.15 357.94 143.21C358.17 129.27 342.89 127 335.46 127.57C331.698 127.93 327.918 128.071 324.14 127.99L324.56 131.99L321.56 132.78L323.82 135.55L321.34 136.68L324.5 141Z" fill="#263238"/>
<path d="M350.26 293C350.26 293 368.36 297.79 373.26 311.27" stroke="white" stroke-linecap="round" stroke-linejoin="round"/>
<path d="M358.55 300.25C358.55 300.25 348.77 316.54 333.8 325" stroke="white" stroke-linecap="round" stroke-linejoin="round"/>
<path d="M344.8 391.86C344.8 391.86 350.36 390.61 351.88 388.45" stroke="white" stroke-linecap="round" stroke-linejoin="round"/>
<path d="M375.76 393.93C375.76 393.93 381.2 391.11 386.62 393.93" stroke="white" stroke-linecap="round" stroke-linejoin="round"/>
<path d="M393.37 318.09C393.37 318.09 384.24 341.74 379.62 343.93" stroke="white" stroke-linecap="round" stroke-linejoin="round"/>
<path d="M353.39 281.05C353.64 283.62 364.39 295.53 373.26 300.25" stroke="white" stroke-linecap="round" stroke-linejoin="round"/>
<path d="M362.56 271C363.854 274.189 364.123 277.701 363.33 281.05C362.467 283.94 362.467 287.02 363.33 289.91" stroke="white" stroke-linecap="round" stroke-linejoin="round"/>
<path d="M343 221.82C343 221.82 359.83 243.6 377.92 250.75" stroke="#263238" stroke-linecap="round" stroke-linejoin="round"/>
<path d="M360.42 186.61C360.42 186.61 360.36 201.42 371.04 208.1" stroke="#263238" stroke-linecap="round" stroke-linejoin="round"/>
<path d="M366.43 208.22C364.17 210.44 366.63 238.3 366.63 238.3C366.63 238.3 353.5 243.44 349.39 246.75C345.28 250.06 325.81 257.66 325.81 257.66C325.81 257.66 322.81 267.88 326.55 268.23C330.29 268.58 369.02 255.38 377.88 250.75C377.88 250.75 383.65 216.75 383.61 208.1" fill="white"/>
<path d="M366.43 208.22C364.17 210.44 366.63 238.3 366.63 238.3C366.63 238.3 353.5 243.44 349.39 246.75C345.28 250.06 325.81 257.66 325.81 257.66C325.81 257.66 322.81 267.88 326.55 268.23C330.29 268.58 369.02 255.38 377.88 250.75C377.88 250.75 383.65 216.75 383.61 208.1" stroke="#263238" stroke-linecap="round" stroke-linejoin="round"/>
<path d="M327.35 257.05C325.55 256.71 322.35 255.53 320.67 255.92C318.99 256.31 315.92 258.16 312.76 258.92C309.6 259.68 310.91 260.92 312.76 261.29C314.114 261.515 315.496 261.515 316.85 261.29L314.28 263.8C312.808 264.596 311.289 265.301 309.73 265.91C308.8 265.91 305.51 266.8 305.73 268.2C305.95 269.6 307.84 269.44 309.95 269.52C309.95 269.52 306.59 270.19 306.95 272.1C307.17 273.41 310.95 272.23 312.88 272.23C312.88 272.23 311.3 273.95 312.48 274.48C313.66 275.01 316.28 273.69 316.28 273.69C316.28 273.69 316.18 275.11 317.36 275.25C318.54 275.39 321.51 274.25 323.53 273.03C325.519 271.748 327.423 270.338 329.23 268.81C329.995 268.111 330.87 267.543 331.82 267.13" fill="white"/>
<path d="M327.35 257.05C325.55 256.71 322.35 255.53 320.67 255.92C318.99 256.31 315.92 258.16 312.76 258.92C309.6 259.68 310.91 260.92 312.76 261.29C314.114 261.515 315.496 261.515 316.85 261.29L314.28 263.8C312.808 264.596 311.289 265.301 309.73 265.91C308.8 265.91 305.51 266.8 305.73 268.2C305.95 269.6 307.84 269.44 309.95 269.52C309.95 269.52 306.59 270.19 306.95 272.1C307.17 273.41 310.95 272.23 312.88 272.23C312.88 272.23 311.3 273.95 312.48 274.48C313.66 275.01 316.28 273.69 316.28 273.69C316.28 273.69 316.18 275.11 317.36 275.25C318.54 275.39 321.51 274.25 323.53 273.03C325.519 271.748 327.423 270.338 329.23 268.81C329.995 268.111 330.87 267.543 331.82 267.13" stroke="#263238" stroke-linecap="round" stroke-linejoin="round"/>
<path d="M310 269.56C310.929 269.51 311.854 269.403 312.77 269.24C313.56 269.04 314.35 268.78 314.35 268.78" stroke="#263238" stroke-linecap="round" stroke-linejoin="round"/>
<path d="M312.89 272.27C314.099 272.1 315.263 271.699 316.32 271.09" stroke="#263238" stroke-linecap="round" stroke-linejoin="round"/>
<path d="M316.29 273.73C317.184 273.617 318.04 273.299 318.79 272.8" stroke="#263238" stroke-linecap="round" stroke-linejoin="round"/>
<path d="M314.6 264.56C314.6 264.56 313.88 266.21 314.6 267.13C315.32 268.05 316.19 268.13 316.32 269.13C316.45 270.13 318.17 270.13 318.79 270.78C319.41 271.43 319.88 272.68 321.86 272.78" stroke="#263238" stroke-linecap="round" stroke-linejoin="round"/>
<path d="M365.59 179.33C358.78 194.74 365.59 216.12 365.59 216.12C365.59 216.12 382.07 221.72 383.59 219.31C385.11 216.9 387.89 205.08 388.36 199.62" fill="#999999"/>
<path d="M365.59 179.33C358.78 194.74 365.59 216.12 365.59 216.12C365.59 216.12 382.07 221.72 383.59 219.31C385.11 216.9 387.89 205.08 388.36 199.62" stroke="#263238" stroke-linecap="round" stroke-linejoin="round"/>
<path d="M383.61 201.33C383.61 201.33 376.61 210.96 371.04 211.09" stroke="#263238" stroke-linecap="round" stroke-linejoin="round"/>
<path d="M133.41 443.43C133.41 443.43 131.7 436.9 133.7 434.48C137.28 430.14 133.26 426.48 136.86 424.99L138.37 426.74C138.66 424.97 137.82 419.56 144.5 418.86C152.58 418.01 152.73 423.86 153.17 425.86L153.03 423.15C156.48 423.15 154.69 426.59 159.91 432.21C161.279 433.727 162.32 435.51 162.971 437.447C163.621 439.384 163.866 441.434 163.69 443.47L133.41 443.43Z" fill="#263238"/>
<path d="M195 443.43C191.75 441.98 194.73 429.72 194.73 429.72C194.73 429.72 190.36 426.79 194.73 423.72C196.42 425.152 198.469 426.095 200.657 426.448C202.844 426.8 205.086 426.549 207.14 425.72C207.14 425.72 207.99 417.52 213.14 418.57C213.14 418.57 214.46 423.77 217.47 426.74C225.62 434.74 236.15 435.74 237.91 439.58C238.44 440.74 237.8 443.39 237.8 443.39L195 443.43Z" fill="#263238"/>
<path d="M181.11 247.91L185.11 256.39C185.11 256.39 201.65 290.57 211.78 329.71C212.02 330.64 217.26 349.18 213.06 395.35L215.46 403.45L212.84 416.83C212.84 416.83 216.78 422.52 216.64 424.38C216.64 424.38 206.92 426.19 203.64 427.93C201.12 429.29 193.55 436.76 193.55 436.76C191.4 436.32 191.21 427.64 191.21 427.64C191.21 427.64 186.72 350.57 185.43 347.25C184.14 343.93 176.26 329.61 163.96 296.84C163.96 296.84 163.68 342.61 160.4 354.19C157.47 364.49 160.94 393.32 160.94 393.32L158.94 425.41C158.94 425.41 165.86 432.6 160.25 434.53C160.25 434.53 156.5 427.32 145.82 425.68C140.39 424.84 133.63 434.48 133.63 434.48C131.25 433.72 134.63 421.61 134.63 421.61C127.06 364.49 132.63 374.83 131.13 346.91C130.13 328.99 125.08 252.33 131.04 246.1L181.11 247.91Z" fill="#BFBFBF"/>
<mask id="mask6_504_43741" style="mask-type:luminance" maskUnits="userSpaceOnUse" x="128" y="246" width="89" height="191">
<path d="M181.11 247.91L185.11 256.39C185.11 256.39 201.65 290.57 211.78 329.71C212.02 330.64 217.26 349.18 213.06 395.35L215.46 403.45L212.84 416.83C212.84 416.83 216.78 422.52 216.64 424.38C216.64 424.38 206.92 426.19 203.64 427.93C201.12 429.29 193.55 436.76 193.55 436.76C191.4 436.32 191.21 427.64 191.21 427.64C191.21 427.64 186.72 350.57 185.43 347.25C184.14 343.93 176.26 329.61 163.96 296.84C163.96 296.84 163.68 342.61 160.4 354.19C157.47 364.49 160.94 393.32 160.94 393.32L158.94 425.41C158.94 425.41 165.86 432.6 160.25 434.53C160.25 434.53 156.5 427.32 145.82 425.68C140.39 424.84 133.63 434.48 133.63 434.48C131.25 433.72 134.63 421.61 134.63 421.61C127.06 364.49 132.63 374.83 131.13 346.91C130.13 328.99 125.08 252.33 131.04 246.1L181.11 247.91Z" fill="white"/>
</mask>
<g mask="url(#mask6_504_43741)">
<path opacity="0.2" d="M128.26 274.31C155 276.41 178.15 267.66 188.2 263.09C186.29 258.81 185.12 256.39 185.12 256.39L181.12 247.92L131.12 246.1C129 248.35 128.25 259.78 128.26 274.31Z" fill="black"/>
<path opacity="0.2" d="M164.23 297.43C176.4 329.78 184.23 343.94 185.49 347.24C186.22 349.16 188.01 375.33 189.41 397.29C191.01 377.29 192.66 356.22 192.8 352.09C193.1 343.85 187.15 332.56 186.26 329.64C185.37 326.72 187.38 323.56 187.38 323.56L176.68 310.06C177.04 305.48 171.37 285.49 171.37 285.49C168 288.68 165 295.47 164.23 297.43Z" fill="black"/>
</g>
<path d="M181.11 247.91L185.11 256.39C185.11 256.39 201.65 290.57 211.78 329.71C212.02 330.64 217.26 349.18 213.06 395.35L215.46 403.45L212.84 416.83C212.84 416.83 216.78 422.52 216.64 424.38C216.64 424.38 206.92 426.19 203.64 427.93C201.12 429.29 193.55 436.76 193.55 436.76C191.4 436.32 191.21 427.64 191.21 427.64C191.21 427.64 186.72 350.57 185.43 347.25C184.14 343.93 176.26 329.61 163.96 296.84C163.96 296.84 163.68 342.61 160.4 354.19C157.47 364.49 160.94 393.32 160.94 393.32L158.94 425.41C158.94 425.41 165.86 432.6 160.25 434.53C160.25 434.53 156.5 427.32 145.82 425.68C140.39 424.84 133.63 434.48 133.63 434.48C131.25 433.72 134.63 421.61 134.63 421.61C127.06 364.49 132.63 374.83 131.13 346.91C130.13 328.99 125.08 252.33 131.04 246.1L181.11 247.91Z" stroke="#263238" stroke-linecap="round" stroke-linejoin="round"/>
<path d="M164 296.84C164 296.84 170.11 285.05 175.32 281.76" stroke="#263238" stroke-linecap="round" stroke-linejoin="round"/>
<path d="M177.62 277.94C177.62 277.94 159.06 283.59 152.62 284.68" stroke="#263238" stroke-linecap="round" stroke-linejoin="round"/>
<path d="M168.12 259C168.92 274.45 174.37 277.08 169.12 280.45C169.12 280.45 169.27 287.68 166.65 292.26" stroke="#263238" stroke-linecap="round" stroke-linejoin="round"/>
<path d="M135.6 253.09C135.6 253.09 137.79 276.84 130.48 281.31" stroke="#263238" stroke-linecap="round" stroke-linejoin="round"/>
<path d="M130.48 260.75C130.48 260.75 129.93 276.56 130.48 289.3C130.48 289.3 132.31 343.15 134.14 349.91C135.97 356.67 131.32 366.91 131.72 396.13" stroke="#263238" stroke-linecap="round" stroke-linejoin="round"/>
<path d="M148 419C146.269 418.624 144.462 418.864 142.89 419.68" stroke="#263238" stroke-linecap="round" stroke-linejoin="round"/>
<path d="M159 425.41C156.707 423.178 154.048 421.355 151.14 420.02" stroke="#263238" stroke-linecap="round" stroke-linejoin="round"/>
<path d="M156 300.57C151.9 305.17 145.4 313.84 138.74 314.57" stroke="#263238" stroke-linecap="round" stroke-linejoin="round"/>
<path d="M162.27 293.09C161.01 294.68 159.71 296.24 158.39 297.79" stroke="#263238" stroke-linecap="round" stroke-linejoin="round"/>
<path d="M156.43 346.91C156.43 346.91 147.11 359.6 142 360.33" stroke="#263238" stroke-linecap="round" stroke-linejoin="round"/>
<path d="M167.39 294.55C167.39 294.55 183.99 340.78 189.76 345.34C189.76 345.34 190.41 379.34 190.6 391.21C190.79 403.08 193.52 418.86 193.52 418.86" stroke="#263238" stroke-linecap="round" stroke-linejoin="round"/>
<path d="M211.24 418.52C211.24 418.52 204.85 420.73 201.74 422.14C199.83 423.072 198.334 424.679 197.54 426.65" stroke="#263238" stroke-linecap="round" stroke-linejoin="round"/>
<path d="M195.07 328.67C186.16 323.08 174.41 316.09 169.67 306.24" stroke="#263238" stroke-linecap="round" stroke-linejoin="round"/>
<path d="M202.84 333.28C201.15 332.35 199.49 331.38 197.84 330.38" stroke="#263238" stroke-linecap="round" stroke-linejoin="round"/>
<path d="M174.76 265.25C169.97 265.18 164.76 264.55 160.63 261.84" stroke="#263238" stroke-linecap="round" stroke-linejoin="round"/>
<path d="M182.37 264.8C181 264.99 179.62 265.11 178.24 265.18" stroke="#263238" stroke-linecap="round" stroke-linejoin="round"/>
<path d="M191.26 158.64C187.6 153.1 168.95 151.69 156.98 151.69C145.01 151.69 130.48 149.69 123.92 163.19C118.92 173.5 130.44 228.02 130.44 228.02L127.62 251.56C149.3 258.36 186.44 256.86 186.44 256.86L181.44 235.58C181.44 235.58 194.92 164.17 191.26 158.64Z" fill="#263238"/>
<path d="M149.87 138C149.87 138 151.48 150.83 146.6 153.6C146.6 153.6 149.04 163.01 157.6 163.6C166.16 164.19 169.94 155 169.94 155L149.87 138Z" fill="white" stroke="#263238" stroke-linecap="round" stroke-linejoin="round"/>
<path d="M195.234 105.058L217.141 103.037C217.637 102.992 218.132 103.145 218.515 103.464C218.899 103.782 219.14 104.24 219.186 104.737L220.628 120.37L195.016 122.733L193.574 107.099C193.529 106.609 193.677 106.122 193.988 105.74C194.298 105.358 194.745 105.114 195.234 105.058Z" fill="#A7CEFC"/>
<mask id="mask7_504_43741" style="mask-type:luminance" maskUnits="userSpaceOnUse" x="193" y="103" width="28" height="20">
<path d="M195.234 105.058L217.141 103.037C217.637 102.991 218.132 103.145 218.515 103.463C218.899 103.782 219.14 104.24 219.186 104.736L220.628 120.37L195.016 122.732L193.574 107.099C193.529 106.609 193.677 106.121 193.988 105.74C194.298 105.358 194.745 105.113 195.234 105.058Z" fill="white"/>
</mask>
<g mask="url(#mask7_504_43741)">
<path opacity="0.3" d="M195.234 105.058L217.141 103.037C217.637 102.991 218.132 103.145 218.515 103.463C218.899 103.782 219.14 104.24 219.186 104.736L220.628 120.37L195.016 122.732L193.574 107.099C193.529 106.609 193.677 106.121 193.988 105.74C194.298 105.358 194.745 105.113 195.234 105.058Z" fill="black" fill-opacity="0.7"/>
<path opacity="0.3" d="M217.779 104.619L211.476 105.2L212.639 117.806L218.942 117.225L217.779 104.619Z" fill="white" fill-opacity="0.7"/>
</g>
<path d="M195.234 105.058L217.141 103.037C217.637 102.992 218.132 103.145 218.515 103.464C218.899 103.782 219.14 104.24 219.186 104.737L220.628 120.37L195.016 122.733L193.574 107.099C193.529 106.609 193.677 106.122 193.988 105.74C194.298 105.358 194.745 105.114 195.234 105.058Z" stroke="#263238" stroke-linecap="round" stroke-linejoin="round"/>
<path d="M233.111 101.544L255.018 99.5229C255.515 99.4772 256.009 99.6305 256.393 99.9492C256.776 100.268 257.017 100.726 257.063 101.222L258.505 116.856L232.854 119.222L231.412 103.588C231.366 103.092 231.519 102.598 231.838 102.214C232.157 101.831 232.615 101.589 233.111 101.544Z" fill="#A7CEFC"/>
<mask id="mask8_504_43741" style="mask-type:luminance" maskUnits="userSpaceOnUse" x="231" y="99" width="28" height="21">
<path d="M233.111 101.543L255.018 99.5227C255.515 99.4769 256.009 99.6302 256.393 99.9489C256.776 100.268 257.017 100.726 257.063 101.222L258.505 116.856L232.854 119.222L231.412 103.588C231.366 103.092 231.519 102.597 231.838 102.214C232.157 101.83 232.615 101.589 233.111 101.543Z" fill="white"/>
</mask>
<g mask="url(#mask8_504_43741)">
<path opacity="0.3" d="M233.111 101.543L255.018 99.5227C255.515 99.4769 256.009 99.6302 256.393 99.9489C256.776 100.268 257.017 100.726 257.063 101.222L258.505 116.856L232.854 119.222L231.412 103.588C231.366 103.092 231.519 102.597 231.838 102.214C232.157 101.83 232.615 101.589 233.111 101.543Z" fill="black" fill-opacity="0.7"/>
<path opacity="0.3" d="M255.204 101.177L251.4 101.528L252.563 114.134L256.367 113.783L255.204 101.177Z" fill="white" fill-opacity="0.7"/>
</g>
<path d="M233.111 101.544L255.018 99.5229C255.515 99.4772 256.009 99.6305 256.393 99.9492C256.776 100.268 257.017 100.726 257.063 101.222L258.505 116.856L232.854 119.222L231.412 103.588C231.366 103.092 231.519 102.598 231.838 102.214C232.157 101.831 232.615 101.589 233.111 101.544Z" stroke="#263238" stroke-linecap="round" stroke-linejoin="round"/>
<path d="M225.152 102.272L247.059 100.251C247.555 100.205 248.05 100.358 248.433 100.677C248.817 100.996 249.058 101.454 249.104 101.95L250.546 117.584L224.855 119.954L223.413 104.32C223.39 104.071 223.417 103.819 223.492 103.581C223.567 103.342 223.69 103.121 223.852 102.93C224.014 102.739 224.212 102.583 224.435 102.47C224.659 102.357 224.902 102.289 225.152 102.272Z" fill="#A7CEFC" stroke="#263238" stroke-linecap="round" stroke-linejoin="round"/>
<path d="M262.991 98.7807L284.898 96.76C285.395 96.7142 285.889 96.8675 286.273 97.1862C286.656 97.5049 286.897 97.9629 286.943 98.4594L288.385 114.093L262.734 116.459L261.292 100.825C261.246 100.329 261.4 99.8346 261.718 99.4511C262.037 99.0676 262.495 98.8265 262.991 98.7807Z" fill="#A7CEFC" stroke="#263238" stroke-linecap="round" stroke-linejoin="round"/>
<path opacity="0.3" d="M247.66 101.866L241.357 102.447L242.52 115.054L248.823 114.472L247.66 101.866Z" fill="white" fill-opacity="0.7"/>
<path opacity="0.3" d="M285.084 98.4035L278.781 98.9849L279.944 111.591L286.247 111.01L285.084 98.4035Z" fill="white" fill-opacity="0.7"/>
<path d="M299.21 109.42L305.85 181.3L190 192L183.4 120.1C183.289 118.899 183.659 117.702 184.43 116.774C185.201 115.846 186.309 115.262 187.51 115.15L294.27 105.3C294.865 105.245 295.465 105.308 296.036 105.486C296.607 105.663 297.137 105.951 297.596 106.334C298.055 106.717 298.433 107.187 298.71 107.716C298.987 108.246 299.157 108.825 299.21 109.42Z" fill="#A7CEFC"/>
<mask id="mask9_504_43741" style="mask-type:luminance" maskUnits="userSpaceOnUse" x="183" y="105" width="123" height="87">
<path d="M299.21 109.42L305.85 181.3L190 192L183.4 120.1C183.289 118.899 183.659 117.702 184.43 116.774C185.201 115.846 186.309 115.262 187.51 115.15L294.27 105.3C294.865 105.245 295.465 105.308 296.036 105.486C296.607 105.663 297.137 105.951 297.596 106.334C298.055 106.717 298.433 107.187 298.71 107.716C298.987 108.246 299.157 108.825 299.21 109.42Z" fill="white"/>
</mask>
<g mask="url(#mask9_504_43741)">
<path opacity="0.3" d="M299.21 109.42L305.85 181.3L190 192L183.4 120.1C183.289 118.899 183.659 117.702 184.43 116.774C185.201 115.846 186.309 115.262 187.51 115.15L294.27 105.3C294.865 105.245 295.465 105.308 296.036 105.486C296.607 105.663 297.137 105.951 297.596 106.334C298.055 106.717 298.433 107.187 298.71 107.716C298.987 108.246 299.157 108.825 299.21 109.42Z" fill="black" fill-opacity="0.7"/>
</g>
<path d="M299.21 109.42L305.85 181.3L190 192L183.4 120.1C183.289 118.899 183.659 117.702 184.43 116.774C185.201 115.846 186.309 115.262 187.51 115.15L294.27 105.3C294.865 105.245 295.465 105.308 296.036 105.486C296.607 105.663 297.137 105.951 297.596 106.334C298.055 106.717 298.433 107.187 298.71 107.716C298.987 108.246 299.157 108.825 299.21 109.42Z" stroke="#263238" stroke-linecap="round" stroke-linejoin="round"/>
<path d="M299.21 109.42L305.85 181.3L219.85 189.23L213.22 117.35C213.109 116.149 213.479 114.952 214.25 114.024C215.021 113.096 216.129 112.512 217.33 112.4L294.22 105.3C294.819 105.238 295.425 105.296 296.001 105.47C296.577 105.644 297.113 105.932 297.578 106.315C298.042 106.698 298.426 107.17 298.706 107.703C298.986 108.237 299.158 108.82 299.21 109.42Z" fill="#A7CEFC" stroke="#263238" stroke-linecap="round" stroke-linejoin="round"/>
<path opacity="0.3" d="M293.64 112.51L220.17 119.29C219.681 119.323 219.198 119.164 218.824 118.847C218.45 118.529 218.216 118.078 218.17 117.59C218.134 117.102 218.29 116.619 218.606 116.245C218.922 115.871 219.372 115.636 219.86 115.59L293.33 108.81C293.819 108.777 294.302 108.936 294.676 109.253C295.049 109.571 295.284 110.022 295.33 110.51C295.361 110.997 295.202 111.477 294.887 111.85C294.572 112.223 294.125 112.459 293.64 112.51Z" fill="white" fill-opacity="0.7"/>
<path d="M164.54 112.56C164.54 112.56 147.59 109.16 145.69 120.07C143.79 130.98 150 135.62 150 135.62L164.54 112.56Z" fill="#263238"/>
<path d="M150 141.61C148.063 136.186 147.761 130.314 149.13 124.72C150.79 117.72 159.13 108.09 171.78 116.84C178.29 121.35 178.69 131.14 176.66 140.1C176.18 142.24 176.54 144.33 175.83 146.3C173.33 153.2 168.76 158.51 166.26 158.63C162.09 158.84 153.75 153.79 154.09 149.39" fill="white"/>
<path d="M150 141.61C148.063 136.186 147.761 130.314 149.13 124.72C150.79 117.72 159.13 108.09 171.78 116.84C178.29 121.35 178.69 131.14 176.66 140.1C176.18 142.24 176.54 144.33 175.83 146.3C173.33 153.2 168.76 158.51 166.26 158.63C162.09 158.84 153.75 153.79 154.09 149.39" stroke="#263238" stroke-linecap="round" stroke-linejoin="round"/>
<path d="M166.89 138.44C166.89 138.44 163.52 136 160.28 138" stroke="#263238" stroke-linecap="round" stroke-linejoin="round"/>
<path d="M173.25 138C173.25 138 175.8 135.66 177.46 136" stroke="#263238" stroke-linecap="round" stroke-linejoin="round"/>
<path d="M162.13 142.18C162.13 142.8 162.44 143.31 162.83 143.31C163.22 143.31 163.54 142.8 163.54 142.18C163.54 141.56 163.22 141.06 162.83 141.06C162.44 141.06 162.13 141.56 162.13 142.18Z" fill="#263238"/>
<path d="M173.25 142.68C173.642 142.68 173.96 142.178 173.96 141.56C173.96 140.941 173.642 140.44 173.25 140.44C172.858 140.44 172.54 140.941 172.54 141.56C172.54 142.178 172.858 142.68 173.25 142.68Z" fill="#263238"/>
<path d="M171.82 140.36C170.58 141.98 172.32 148.15 171.82 148.59C171.32 149.03 168.14 147.78 168.14 147.78C168.14 147.78 167.4 146.84 168.95 146.34" stroke="#263238" stroke-linecap="round" stroke-linejoin="round"/>
<path d="M169 151.69C169 151.69 164.73 151.69 163.59 150.13" stroke="#263238" stroke-linecap="round" stroke-linejoin="round"/>
<path d="M158.78 128.58L158.45 133.74C158.45 133.74 154.79 135.63 153.87 137.55C153.322 138.808 153.122 140.189 153.29 141.55C153.29 141.55 151.07 137.67 149.87 137.99C149.44 138.1 149.44 139.73 149.44 139.73C149.44 139.73 144.44 128.57 148.96 122.67C153.48 116.77 158.78 128.58 158.78 128.58Z" fill="#757575" stroke="#263238" stroke-linecap="round" stroke-linejoin="round"/>
<path d="M151.73 140.44C151.73 140.44 150.73 136.69 147.36 135.7C143.99 134.71 146.3 143.7 149.17 144.87C152.04 146.04 152.76 146.87 152.93 145.8" fill="white"/>
<path d="M151.73 140.44C151.73 140.44 150.73 136.69 147.36 135.7C143.99 134.71 146.3 143.7 149.17 144.87C152.04 146.04 152.76 146.87 152.93 145.8" stroke="#263238" stroke-linecap="round" stroke-linejoin="round"/>
<path d="M147.14 127.93C146.86 127.55 145.62 117.93 151.97 113.61C158.32 109.29 169.05 109.75 175.88 115.73C182.71 121.71 180.77 132.08 175.88 135.62V131.29C175.88 131.29 173.63 135.63 166.88 135.99L168.94 132.81C168.94 132.81 165.62 134.81 159.77 134.64C159.77 134.64 162.52 132.45 162.12 130.5C162.13 130.5 152.84 135.73 147.14 127.93Z" fill="#263238"/>
<path d="M148.33 162.61C143.65 163.17 136.99 169.28 141.33 180.13C144.1 187.01 166.86 182.92 166.86 182.92C175.3 179.44 187.63 166.92 196.68 161.11C196.68 161.11 194.77 149.11 192.57 150.81C182.34 158.64 173.93 159.18 159.66 166.04C159.69 166 151.27 162.26 148.33 162.61Z" fill="white" stroke="#263238" stroke-linecap="round" stroke-linejoin="round"/>
<path d="M158.78 175.93C158.64 180.41 160.48 181.2 163.58 182.26L158.78 175.93Z" fill="white"/>
<path d="M158.78 175.93C158.64 180.41 160.48 181.2 163.58 182.26" stroke="#263238" stroke-linecap="round" stroke-linejoin="round"/>
<path d="M191.89 151.69C192.1 151.04 195.89 144.38 196.96 142.69C198.03 141 202.81 139.47 204.66 138.45C206.51 137.43 206.66 135.88 207.66 136.99C208.66 138.1 207.66 140.63 202.12 143.32C204.088 143.429 206.061 143.429 208.03 143.32C209.51 143.1 210.83 141.76 211.49 142.69C212.15 143.62 212.28 145.29 208.98 146.31C207.411 146.879 205.767 147.216 204.1 147.31C205.714 147.655 207.302 148.116 208.85 148.69C209.38 149.08 210.17 149.99 210.96 150.13C211.75 150.27 212.61 151.13 211.16 152.13C210.646 152.414 210.07 152.568 209.482 152.579C208.895 152.589 208.314 152.456 207.79 152.19C207.79 152.19 211.62 154.04 210.43 155.19C209.24 156.34 205.43 156.11 205.43 156.11C205.43 156.11 199.78 163 195 161.56" fill="white"/>
<path d="M191.89 151.69C192.1 151.04 195.89 144.38 196.96 142.69C198.03 141 202.81 139.47 204.66 138.45C206.51 137.43 206.66 135.88 207.66 136.99C208.66 138.1 207.66 140.63 202.12 143.32C204.088 143.429 206.061 143.429 208.03 143.32C209.51 143.1 210.83 141.76 211.49 142.69C212.15 143.62 212.28 145.29 208.98 146.31C207.411 146.879 205.767 147.216 204.1 147.31C205.714 147.655 207.302 148.116 208.85 148.69C209.38 149.08 210.17 149.99 210.96 150.13C211.75 150.27 212.61 151.13 211.16 152.13C210.646 152.414 210.07 152.568 209.482 152.579C208.895 152.589 208.314 152.456 207.79 152.19C207.79 152.19 211.62 154.04 210.43 155.19C209.24 156.34 205.43 156.11 205.43 156.11C205.43 156.11 199.78 163 195 161.56" stroke="#263238" stroke-linecap="round" stroke-linejoin="round"/>
<path d="M198.66 142.68C198.983 142.755 199.28 142.918 199.516 143.151C199.753 143.384 199.92 143.678 200 144C200.33 145.18 201.3 145.25 201.89 146.57C202.48 147.89 202.31 149.93 202.89 150.63C203.47 151.33 202.89 154.28 202.89 154.28" stroke="#263238" stroke-linecap="round" stroke-linejoin="round"/>
<path d="M149.31 161.76C146.86 158.64 141.36 160.05 141.36 160.05" stroke="white" stroke-linecap="round" stroke-linejoin="round"/>
<path d="M138.36 154.3C138.36 154.3 144.02 155.13 145.69 159.84" stroke="white" stroke-linecap="round" stroke-linejoin="round"/>
<path d="M148.33 184.12C148.33 184.12 142.81 188.39 134.41 182.26" stroke="white" stroke-linecap="round" stroke-linejoin="round"/>
<path d="M141.36 185.41C141.36 185.41 138.56 189.28 131.74 189.23" stroke="white" stroke-linecap="round" stroke-linejoin="round"/>
<path d="M176.44 234.1C176.44 234.1 162 245.61 147.33 244.1" stroke="white" stroke-linecap="round" stroke-linejoin="round"/>
<path d="M137.41 208.81C137.41 208.81 159.82 225.25 176.41 226.3" stroke="white" stroke-linecap="round" stroke-linejoin="round"/>
<path d="M138 330.51C141.855 328.371 146.387 327.805 150.65 328.93C157.96 330.77 176.95 357.93 179.59 360.58C182.23 363.23 187.17 364.58 191.72 369.37C198.92 376.88 209.39 383.52 210.45 383.52C211.51 383.52 212.36 382.86 213.68 382.6C215 382.34 225.22 381.41 225.22 381.41C225.22 381.41 228.65 382.17 225.22 383.64C221.79 385.11 222.05 386.42 222.05 386.42C222.05 386.42 221.36 387.53 222.74 388.59C224.12 389.65 224.93 389.07 226.9 391.86C228.87 394.65 224.12 393.07 224.12 393.07C224.12 393.07 225.17 396.07 223.06 395.77C220.95 395.47 222.8 398.7 219.37 398.26C215.94 397.82 208.6 393.19 206.76 388.34C206.76 388.34 176.82 374.03 172.34 370.34C167.86 366.65 149 346.86 147.71 346.6" fill="#263238"/>
<path d="M216.33 357.31H238.33C238.829 357.31 239.307 357.508 239.659 357.861C240.012 358.213 240.21 358.691 240.21 359.19V374.89H214.45V359.19C214.45 358.691 214.648 358.213 215.001 357.861C215.353 357.508 215.831 357.31 216.33 357.31Z" fill="#A7CEFC"/>
<mask id="mask10_504_43741" style="mask-type:luminance" maskUnits="userSpaceOnUse" x="214" y="357" width="27" height="18">
<path d="M216.33 357.31H238.33C238.829 357.31 239.307 357.508 239.659 357.861C240.012 358.213 240.21 358.691 240.21 359.19V374.89H214.45V359.19C214.45 358.691 214.648 358.213 215.001 357.861C215.353 357.508 215.831 357.31 216.33 357.31Z" fill="white"/>
</mask>
<g mask="url(#mask10_504_43741)">
<path opacity="0.3" d="M216.33 357.31H238.33C238.829 357.31 239.307 357.508 239.659 357.861C240.012 358.213 240.21 358.691 240.21 359.19V374.89H214.45V359.19C214.45 358.691 214.648 358.213 215.001 357.861C215.353 357.508 215.831 357.31 216.33 357.31Z" fill="black" fill-opacity="0.7"/>
<path opacity="0.3" d="M238.78 358.97H232.45V371.63H238.78V358.97Z" fill="white" fill-opacity="0.7"/>
</g>
<path d="M216.33 357.31H238.33C238.829 357.31 239.307 357.508 239.659 357.861C240.012 358.213 240.21 358.691 240.21 359.19V374.89H214.45V359.19C214.45 358.691 214.648 358.213 215.001 357.861C215.353 357.508 215.831 357.31 216.33 357.31Z" stroke="#263238" stroke-linecap="round" stroke-linejoin="round"/>
<path d="M254.33 357.31H276.33C276.829 357.31 277.307 357.508 277.659 357.861C278.012 358.213 278.21 358.691 278.21 359.19V374.89H252.45V359.19C252.45 358.943 252.499 358.699 252.593 358.471C252.688 358.243 252.826 358.035 253.001 357.861C253.175 357.686 253.382 357.548 253.611 357.453C253.839 357.359 254.083 357.31 254.33 357.31Z" fill="#A7CEFC"/>
<mask id="mask11_504_43741" style="mask-type:luminance" maskUnits="userSpaceOnUse" x="252" y="357" width="27" height="18">
<path d="M254.33 357.31H276.33C276.829 357.31 277.307 357.508 277.659 357.861C278.012 358.213 278.21 358.691 278.21 359.19V374.89H252.45V359.19C252.45 358.943 252.499 358.699 252.593 358.471C252.688 358.243 252.826 358.035 253.001 357.861C253.175 357.686 253.382 357.548 253.611 357.453C253.839 357.359 254.083 357.31 254.33 357.31Z" fill="white"/>
</mask>
<g mask="url(#mask11_504_43741)">
<path opacity="0.3" d="M254.33 357.31H276.33C276.829 357.31 277.307 357.508 277.659 357.861C278.012 358.213 278.21 358.691 278.21 359.19V374.89H252.45V359.19C252.45 358.943 252.499 358.699 252.593 358.471C252.688 358.243 252.826 358.035 253.001 357.861C253.175 357.686 253.382 357.548 253.611 357.453C253.839 357.359 254.083 357.31 254.33 357.31Z" fill="black" fill-opacity="0.7"/>
<path opacity="0.3" d="M276.36 358.97H272.54V371.63H276.36V358.97Z" fill="white" fill-opacity="0.7"/>
</g>
<path d="M254.33 357.31H276.33C276.829 357.31 277.307 357.508 277.659 357.861C278.012 358.213 278.21 358.691 278.21 359.19V374.89H252.45V359.19C252.45 358.943 252.499 358.699 252.593 358.471C252.688 358.243 252.826 358.035 253.001 357.861C253.175 357.686 253.382 357.548 253.611 357.453C253.839 357.359 254.083 357.31 254.33 357.31Z" stroke="#263238" stroke-linecap="round" stroke-linejoin="round"/>
<path d="M246.33 357.31H268.33C268.829 357.31 269.307 357.508 269.659 357.861C270.012 358.213 270.21 358.691 270.21 359.19V374.89H244.45V359.19C244.45 358.943 244.499 358.699 244.593 358.471C244.688 358.243 244.826 358.035 245.001 357.861C245.175 357.686 245.382 357.548 245.611 357.453C245.839 357.359 246.083 357.31 246.33 357.31Z" fill="#A7CEFC" stroke="#263238" stroke-linecap="round" stroke-linejoin="round"/>
<path d="M284.33 357.31H306.33C306.829 357.31 307.307 357.508 307.659 357.861C308.012 358.213 308.21 358.691 308.21 359.19V374.89H282.45V359.19C282.45 358.691 282.648 358.213 283.001 357.861C283.353 357.508 283.831 357.31 284.33 357.31Z" fill="#A7CEFC" stroke="#263238" stroke-linecap="round" stroke-linejoin="round"/>
<path opacity="0.3" d="M268.78 358.97H262.45V371.63H268.78V358.97Z" fill="white" fill-opacity="0.7"/>
<path opacity="0.3" d="M306.36 358.97H300.03V371.63H306.36V358.97Z" fill="white" fill-opacity="0.7"/>
<path d="M319.42 371.23V443.42H203.11V371.23C203.11 370.023 203.589 368.866 204.443 368.013C205.296 367.159 206.453 366.68 207.66 366.68H314.87C316.077 366.68 317.234 367.159 318.087 368.013C318.941 368.866 319.42 370.023 319.42 371.23Z" fill="#A7CEFC"/>
<mask id="mask12_504_43741" style="mask-type:luminance" maskUnits="userSpaceOnUse" x="203" y="366" width="117" height="78">
<path d="M319.42 371.23V443.42H203.11V371.23C203.11 370.023 203.589 368.866 204.443 368.013C205.296 367.159 206.453 366.68 207.66 366.68H314.87C316.077 366.68 317.234 367.159 318.087 368.013C318.941 368.866 319.42 370.023 319.42 371.23Z" fill="white"/>
</mask>
<g mask="url(#mask12_504_43741)">
<path opacity="0.3" d="M319.42 371.23V443.42H203.11V371.23C203.11 370.023 203.589 368.866 204.443 368.013C205.296 367.159 206.453 366.68 207.66 366.68H314.87C316.077 366.68 317.234 367.159 318.087 368.013C318.941 368.866 319.42 370.023 319.42 371.23Z" fill="black" fill-opacity="0.7"/>
</g>
<path d="M319.42 371.23V443.42H203.11V371.23C203.11 370.023 203.589 368.866 204.443 368.013C205.296 367.159 206.453 366.68 207.66 366.68H314.87C316.077 366.68 317.234 367.159 318.087 368.013C318.941 368.866 319.42 370.023 319.42 371.23Z" stroke="#263238" stroke-linecap="round" stroke-linejoin="round"/>
<path d="M319.42 371.23V443.42H233.11V371.23C233.11 370.023 233.589 368.866 234.443 368.013C235.296 367.159 236.453 366.68 237.66 366.68H314.87C316.077 366.68 317.234 367.159 318.087 368.013C318.941 368.866 319.42 370.023 319.42 371.23Z" fill="#A7CEFC" stroke="#263238" stroke-linecap="round" stroke-linejoin="round"/>
<path opacity="0.3" d="M313.58 373.8H239.8C239.302 373.8 238.823 373.602 238.471 373.249C238.118 372.897 237.92 372.419 237.92 371.92C237.915 371.67 237.959 371.421 238.052 371.188C238.144 370.956 238.281 370.744 238.456 370.565C238.632 370.386 238.841 370.244 239.071 370.147C239.302 370.05 239.55 370 239.8 370H313.58C314.079 370 314.557 370.198 314.909 370.551C315.262 370.903 315.46 371.381 315.46 371.88C315.465 372.13 315.421 372.379 315.329 372.612C315.237 372.844 315.099 373.056 314.924 373.235C314.749 373.414 314.54 373.556 314.309 373.653C314.078 373.75 313.83 373.8 313.58 373.8Z" fill="white" fill-opacity="0.7"/>
<path d="M177 443.42C171 443.42 162.57 439.56 152.86 435.48C142.79 431.24 131.32 426.76 119.68 426.09C115.34 425.84 117.97 443.42 117.97 443.42H108.47C108.47 443.42 99.09 430.9 98 419.69C98 419.69 105.66 414.96 107.5 414.69C108.134 414.624 108.772 414.594 109.41 414.6C111.47 414.6 114.22 414.69 114.22 414.69C113.78 414.43 106.77 410.21 102.9 405.92C99.71 402.38 98.25 396.79 98.14 393.45C98.2636 391.239 98.5073 389.035 98.87 386.85L148.79 387.68C148.79 387.68 149.33 388.06 150.29 388.77C156.08 392.99 177.24 408.71 187.82 420.56C191.24 424.39 193.55 427.81 193.89 430.31C195.48 441.84 186.05 443.42 177 443.42Z" fill="#757575" stroke="#263238" stroke-linecap="round" stroke-linejoin="round"/>
<path d="M187.83 420.54L163.55 426.09C159.387 428.471 155.745 431.665 152.84 435.48C142.77 431.24 131.3 426.76 119.66 426.09C115.32 425.84 117.95 443.42 117.95 443.42H108.45C108.45 443.42 99.09 430.9 98 419.69C98 419.69 106.84 432.29 109 438.69C109 438.69 112.43 426.85 118 422.1C115.484 419.267 112.626 416.757 109.49 414.63C111.55 414.63 114.3 414.72 114.3 414.72C113.86 414.46 106.85 410.24 102.98 405.95C99.79 402.41 98.5 396.81 98.22 393.48C98.08 391.84 98.28 386.88 98.28 386.88C98.28 386.88 135.51 392.19 150.37 388.8C156.09 393 177.25 408.69 187.83 420.54Z" fill="#263238"/>
<path d="M148.8 419.69C148.8 419.69 168.58 429.6 173.86 433.48C179.14 437.36 180.71 436.31 180.71 436.31" stroke="#263238" stroke-linecap="round" stroke-linejoin="round"/>
<path d="M102.91 418.64C102.91 418.64 107.66 425.89 107.91 428.06" stroke="#263238" stroke-linecap="round" stroke-linejoin="round"/>
<path d="M182.47 279.48C182.47 279.48 193 274.9 192 294.38C191 313.86 194.57 314.86 194.57 314.86C194.57 314.86 168.07 325.74 161.34 316.44C154.61 307.14 161 281.69 182.47 279.48Z" fill="#263238"/>
<path d="M181 314.86C181 314.86 170.1 320 169.11 324.75C168.12 329.5 154.47 322.35 154.47 322.35L164.36 308.13L181 314.86Z" fill="white" stroke="#263238" stroke-linecap="round" stroke-linejoin="round"/>
<path d="M109.53 367C84.53 398.84 104.82 414.2 133.16 411.66L127.48 420.66L141.74 423.13C141.74 423.13 152.67 415.99 167.57 408.36C192.93 395.36 203.18 396.14 200.57 383.13C197.96 370.12 166.88 361.68 135.72 375.39C135.69 375.38 118.77 355.28 109.53 367Z" fill="#757575" stroke="#263238" stroke-linecap="round" stroke-linejoin="round"/>
<path d="M118.25 436.31C118.25 436.31 124.76 418.31 127.48 417.31C130.2 416.31 140.48 420.21 141.74 423.11C141.74 423.11 145.21 417.79 146.63 420.05C148.05 422.31 146 426.05 146.63 428.91C147.26 431.77 154.29 435.77 157.1 436.3C159.91 436.83 161.51 438.41 161.51 439.99V443.42H118.25C117.77 442.296 117.522 441.087 117.522 439.865C117.522 438.643 117.77 437.434 118.25 436.31Z" fill="white" stroke="#263238" stroke-linecap="round" stroke-linejoin="round"/>
<path d="M146.63 426.09C146.63 426.09 140.9 428.92 138.81 428.09C136.72 427.26 139.88 432.84 140.67 433.37C141.46 433.9 146.67 431.52 146.67 431.52" stroke="#263238" stroke-linecap="round" stroke-linejoin="round"/>
<path d="M123.66 423.12C123.66 423.12 131.44 423.27 133.81 426.12" stroke="#263238" stroke-linecap="round" stroke-linejoin="round"/>
<path d="M118.25 436.31C118.25 436.31 130.65 439.21 131.7 439.21C133.405 438.872 135.078 438.387 136.7 437.76C136.7 437.76 140.1 439.47 142.36 440.53C144.62 441.59 159.36 440.53 159.36 440.53" stroke="#263238" stroke-linecap="round" stroke-linejoin="round"/>
<path d="M133.16 411.68C145 410.4 168 395.81 176 390.74C184 385.67 186 387 186 387" stroke="#263238" stroke-linecap="round" stroke-linejoin="round"/>
<path d="M98.21 386.83L100.1 372.48L104.66 369.04C112.05 351.11 145.53 317.62 154.66 317.73C168.37 317.89 170.79 332.28 172.48 348.03C174.17 363.78 152.81 361.41 152.81 361.41V365.36L140.66 371.65L148.02 371.42C148.02 371.42 126.85 392 98.21 386.83Z" fill="#A7CEFC" stroke="#263238" stroke-linecap="round" stroke-linejoin="round"/>
<path d="M157.55 290C160.42 281 173.55 278.6 178.27 280.07C182.144 281.583 185.319 284.48 187.18 288.2C188.38 290.79 185.87 295.37 187.66 298.04C190.22 301.87 190 309.95 189.08 315.04C188.58 317.74 177.35 319.34 168.17 313.04C158.31 306.22 154.77 298.66 157.55 290Z" fill="white" stroke="#263238" stroke-linecap="round" stroke-linejoin="round"/>
<path d="M170.82 277.38C170.82 277.38 182.38 275.5 182.46 278.47C182.97 298.2 171.14 302.34 171.14 302.34C171.14 302.34 166.31 298.49 165.23 301.13C164.15 303.77 166.93 311.07 170.35 311.22C169.562 312.444 169.131 313.864 169.106 315.32C169.082 316.776 169.464 318.21 170.21 319.46C170.21 319.46 150.63 322.73 149.01 313.66C149.767 310.507 150.308 307.306 150.63 304.08C151.9 291.37 148.93 282.82 170.82 277.38Z" fill="#263238"/>
<path d="M186.26 297.49C188.67 299.66 190.4 299.66 190.37 300.44C190.28 302.87 187.37 304.08 187.37 304.08" fill="white"/>
<path d="M186.26 297.49C188.67 299.66 190.4 299.66 190.37 300.44C190.28 302.87 187.37 304.08 187.37 304.08" stroke="#263238" stroke-linecap="round" stroke-linejoin="round"/>
<path d="M187.31 308.13C185.607 308.707 183.769 308.752 182.04 308.26" stroke="#263238" stroke-linecap="round" stroke-linejoin="round"/>
<path d="M180.9 285.38C180.9 285.38 188.59 283.15 187.18 295.63C187.18 295.63 190.38 291.28 190.37 286.39C190.37 277.92 179.04 279.62 179.04 279.62L180.52 285.62" fill="#263238"/>
<path d="M187.89 291.49C187.599 291.297 187.271 291.164 186.928 291.101C186.584 291.037 186.231 291.044 185.89 291.12" stroke="#263238" stroke-linecap="round" stroke-linejoin="round"/>
<path d="M182.71 291.35C182.71 291.35 178.58 291.59 176.79 294.35" stroke="#263238" stroke-linecap="round" stroke-linejoin="round"/>
<path d="M181.72 297.92C181.78 298.58 181.5 299.15 181.09 299.19C180.68 299.23 180.3 298.72 180.23 298.06C180.16 297.4 180.45 296.83 180.86 296.79C181.27 296.75 181.66 297.26 181.72 297.92Z" fill="#263238"/>
<path d="M133.81 414.68C133.81 414.68 143.01 415.68 145.01 419.68" stroke="#263238" stroke-linecap="round" stroke-linejoin="round"/>
<path d="M157.1 324.48C160.955 322.341 165.487 321.775 169.75 322.9C177.07 324.75 196.05 351.9 198.69 354.55C201.33 357.2 206.27 358.55 210.82 363.34C218.02 370.85 228.49 377.49 229.55 377.49C230.61 377.49 231.46 376.83 232.78 376.57C234.1 376.31 244.32 375.38 244.32 375.38C244.32 375.38 247.75 376.15 244.32 377.61C240.89 379.07 241.15 380.4 241.15 380.4C241.15 380.4 240.47 381.5 241.84 382.56C243.21 383.62 244.03 383.04 246 385.83C247.97 388.62 243.22 387.04 243.22 387.04C243.22 387.04 244.27 390.04 242.16 389.74C240.05 389.44 241.9 392.67 238.47 392.23C235.04 391.79 227.7 387.16 225.86 382.31C225.86 382.31 195.92 368 191.44 364.31C186.96 360.62 168.12 340.83 166.79 340.57" fill="white"/>
<path d="M157.1 324.48C160.955 322.341 165.487 321.775 169.75 322.9C177.07 324.75 196.05 351.9 198.69 354.55C201.33 357.2 206.27 358.55 210.82 363.34C218.02 370.85 228.49 377.49 229.55 377.49C230.61 377.49 231.46 376.83 232.78 376.57C234.1 376.31 244.32 375.38 244.32 375.38C244.32 375.38 247.75 376.15 244.32 377.61C240.89 379.07 241.15 380.4 241.15 380.4C241.15 380.4 240.47 381.5 241.84 382.56C243.21 383.62 244.03 383.04 246 385.83C247.97 388.62 243.22 387.04 243.22 387.04C243.22 387.04 244.27 390.04 242.16 389.74C240.05 389.44 241.9 392.67 238.47 392.23C235.04 391.79 227.7 387.16 225.86 382.31C225.86 382.31 195.92 368 191.44 364.31C186.96 360.62 168.12 340.83 166.79 340.57" stroke="#263238" stroke-linecap="round" stroke-linejoin="round"/>
<path d="M152.8 321.58C152.8 321.58 167.56 317.63 172.71 320.53C177.86 323.43 187.62 336.88 187.62 336.88C187.62 336.88 175.72 347.53 172.04 346.56C168.36 345.59 157.1 344 157.1 344" fill="#A7CEFC"/>
<path d="M152.8 321.58C152.8 321.58 167.56 317.63 172.71 320.53C177.86 323.43 187.62 336.88 187.62 336.88C187.62 336.88 175.72 347.53 172.04 346.56C168.36 345.59 157.1 344 157.1 344" stroke="#263238" stroke-linecap="round" stroke-linejoin="round"/>
<path d="M165.6 345.3C165.6 345.3 160.25 348.24 158.28 348.24" stroke="#263238" stroke-linecap="round" stroke-linejoin="round"/>
<path d="M157.1 330.55C157.55 331.34 157.4 339.99 166.79 342.68" stroke="#263238" stroke-linecap="round" stroke-linejoin="round"/>
<path d="M106.91 369.32C106.91 369.32 126.91 372.75 133.81 366.68" stroke="#263238" stroke-linecap="round" stroke-linejoin="round"/>
<path d="M140.65 371.65C140.65 371.65 135.65 370.77 133.81 373.34C131.97 375.91 121.95 378.34 121.95 378.34" stroke="#263238" stroke-linecap="round" stroke-linejoin="round"/>
<path d="M100.45 390.74C100.45 390.74 97.5599 403.2 109.89 408.74" stroke="#263238" stroke-linecap="round" stroke-linejoin="round"/>
<path d="M106.91 391.6C106.91 391.6 106.98 397.74 108.91 401.1L115.04 403.1L121.9 399.28C121.9 399.28 120.44 391.43 120.31 389.84" stroke="#263238" stroke-linecap="round" stroke-linejoin="round"/>
</svg>
